<?xml version="1.0" encoding="UTF-8"?><svg id="Layer_2" xmlns="http://www.w3.org/2000/svg" viewBox="0 0 141.6 64"><defs><style>.cls-1{font-family:Franchise-Bold, Franchise;font-size:34px;font-weight:700;}.cls-2,.cls-3{stroke:#000;stroke-width:2px;}.cls-2,.cls-3,.cls-4,.cls-5{stroke-linecap:round;stroke-linejoin:round;}.cls-2,.cls-4,.cls-5{fill:none;}.cls-4{stroke-width:.8px;}.cls-4,.cls-5{stroke:#fff;}.cls-6{fill:#fff;}.cls-7{opacity:.4;}.cls-8{letter-spacing:-.02em;}.cls-9{letter-spacing:0em;}</style></defs><text class="cls-1" transform="translate(42.92 30.24)"><tspan x="0" y="0">PINTS</tspan></text><path class="cls-6" d="M37.57,6.73H9.82s-.67,9.53.1,15.56l3.42,20.8v14.19h20.7v-14.19l3.42-20.8c.78-6.02.1-15.56.1-15.56Z"/><path class="cls-2" d="M37.57,6.73H9.82s-.67,9.53.1,15.56l3.42,20.8v14.19h20.7v-14.19l3.42-20.8c.78-6.02.1-15.56.1-15.56Z"/><path class="cls-3" d="M10.09,16.31c-.26,1.78-.37,3.55-.17,5.09l3.42,20.78v14.17h20.7v-14.17l3.42-20.78c.2-1.54.09-3.31-.17-5.09H10.09Z"/><path class="cls-5" d="M22.33,55.91h10.35v-14.17l3.42-20.78c.15-1.19.13-2.51-.02-3.88"/><text class="cls-1" transform="translate(42.92 57.63)"><tspan class="cls-9" x="0" y="0">B</tspan><tspan x="12.07" y="0">ANG</tspan><tspan class="cls-8" x="50.35" y="0">K</tspan><tspan x="63.38" y="0">OK</tspan></text><g class="cls-7"><line class="cls-4" x1="32.58" y1="19.49" x2="23.74" y2="26.22"/><line class="cls-4" x1="32.03" y1="23.55" x2="23.18" y2="30.28"/><line class="cls-4" x1="31.48" y1="27.61" x2="22.63" y2="34.34"/></g><circle cx="115.42" cy="18.4" r="11"/><path class="cls-6" d="M115.44,17.64c0,.34-.03.69-.1,1.05-.06.36-.16.7-.29,1.03-.13.33-.3.64-.5.93-.2.29-.44.54-.72.76s-.59.39-.93.52c-.35.13-.74.19-1.17.19s-.82-.05-1.14-.16-.58-.26-.78-.46c-.2-.2-.35-.45-.45-.75s-.14-.63-.14-1c0-.34.03-.69.09-1.05.06-.36.16-.7.29-1.02.13-.33.3-.64.5-.93.2-.29.44-.55.71-.76.27-.22.59-.39.93-.52.35-.13.74-.19,1.17-.19s.82.05,1.14.16c.32.11.58.26.78.47s.36.45.45.75.14.63.14,1ZM114.23,17.71c0-.23-.02-.44-.07-.62-.05-.18-.13-.34-.24-.47-.11-.13-.26-.23-.44-.29-.18-.07-.4-.1-.66-.1-.28,0-.53.05-.76.15-.23.1-.43.23-.61.4-.18.17-.33.37-.46.59-.13.23-.24.47-.32.72-.09.26-.15.52-.19.79-.04.27-.06.53-.06.79,0,.23.03.44.08.62.05.18.13.34.25.47.11.13.26.23.44.3s.4.1.66.1c.28,0,.53-.05.76-.15.22-.1.42-.23.6-.4s.33-.37.46-.6c.13-.23.24-.47.32-.73s.15-.52.19-.79.06-.53.06-.79Z"/><path class="cls-6" d="M121.61,12.73s0,.05,0,.09c0,.04-.01.08-.02.13,0,.05-.02.1-.03.15-.01.05-.03.1-.05.15-.02.05-.04.08-.06.11-.02.03-.05.04-.08.04-.03,0-.07,0-.12-.03-.05-.02-.1-.04-.17-.06-.06-.02-.14-.04-.23-.06-.09-.02-.19-.03-.29-.03-.2,0-.37.03-.51.09s-.26.15-.36.28c-.1.13-.19.29-.26.48s-.13.42-.18.69l-.12.62h1.39c.05,0,.09.02.12.05.03.04.04.09.04.17,0,.05,0,.1-.01.16,0,.06-.02.11-.03.16-.01.05-.03.1-.05.15-.02.05-.04.09-.07.13s-.05.07-.09.09c-.03.02-.06.03-.1.03h-1.4l-1.18,5.9c-.08.39-.18.72-.32,1.01-.13.28-.3.52-.49.71-.19.19-.42.32-.67.42-.25.09-.54.13-.86.13-.21,0-.38-.02-.51-.05-.13-.03-.21-.06-.25-.09-.02-.02-.03-.05-.04-.08,0-.03-.01-.06-.01-.11,0-.02,0-.05,0-.09,0-.04.02-.09.02-.14,0-.05.02-.1.04-.15s.03-.1.05-.15c.02-.05.04-.08.06-.11.02-.03.05-.04.08-.04s.06,0,.09.01c.03,0,.06.01.1.02.04,0,.08.01.12.02.05,0,.11.01.18.01.19,0,.36-.03.5-.09.14-.06.26-.15.36-.28s.18-.29.25-.48.13-.43.18-.7l1.14-5.66h-.89s-.08-.01-.11-.04c-.02-.03-.04-.09-.04-.17,0-.04,0-.08,0-.13,0-.05.01-.11.02-.16s.03-.11.04-.16c.02-.05.04-.1.07-.14s.06-.08.09-.1c.03-.03.07-.04.12-.04h.87l.17-.87c.07-.38.18-.71.32-.99.14-.28.31-.52.5-.7.2-.18.42-.32.68-.41.26-.09.54-.14.85-.14.1,0,.21,0,.32.02.11.01.21.03.31.05.09.02.18.04.25.07s.12.06.15.08c.03.02.05.06.06.1s.02.09.02.13Z"/></svg>