<?xml version="1.0" encoding="UTF-8"?><svg id="Layer_2" xmlns="http://www.w3.org/2000/svg" viewBox="0 0 141.6 64"><defs><style>.cls-1,.cls-2{stroke:#000;stroke-width:2px;}.cls-1,.cls-2,.cls-3,.cls-4{stroke-linecap:round;stroke-linejoin:round;}.cls-1,.cls-3,.cls-4{fill:none;}.cls-3{stroke-width:.8px;}.cls-3,.cls-4{stroke:#fff;}.cls-5{fill:#fff;}.cls-6{opacity:.4;}</style></defs><path d="M50.03,6.44c.59,0,1.14.11,1.67.34.52.23.97.53,1.36.92.39.39.69.84.92,1.36.23.52.34,1.08.34,1.67v5.54c0,.59-.11,1.15-.34,1.67-.23.52-.53.98-.92,1.36-.39.39-.84.69-1.36.92-.52.23-1.08.34-1.67.34h-1.6v9.21c0,.32-.16.48-.48.48h-3.03c-.32,0-.48-.16-.48-.48V6.91c0-.32.16-.48.48-.48h5.1ZM50.33,10.89c0-.23-.08-.42-.24-.58s-.35-.24-.58-.24h-1.09v6.83h1.09c.23,0,.42-.08.58-.24.16-.16.24-.35.24-.58v-5.2Z"/><path d="M60.5,29.76c0,.32-.16.48-.48.48h-3.03c-.32,0-.48-.16-.48-.48V6.91c0-.32.16-.48.48-.48h3.03c.32,0,.48.16.48.48v22.85Z"/><path d="M74.44,6.91v22.85c0,.32-.16.48-.48.48h-2.18c-.14,0-.27-.04-.39-.14-.12-.09-.21-.19-.25-.31l-3.6-11.25v11.22c0,.32-.16.48-.48.48h-3.03c-.32,0-.48-.16-.48-.48V6.91c0-.32.16-.48.48-.48h2.24c.14,0,.27.05.39.14.12.09.21.19.26.31l3.54,10.91V6.91c0-.32.16-.48.48-.48h3.03c.32,0,.48.16.48.48Z"/><path d="M86.54,6.91v3.03c0,.32-.16.48-.48.48h-2.41v19.35c0,.32-.16.48-.48.48h-3.03c-.11,0-.22-.04-.32-.14-.1-.09-.15-.2-.15-.34V10.41h-2.38c-.32,0-.48-.16-.48-.48v-3.03c0-.32.16-.48.48-.48h8.77c.32,0,.48.16.48.48Z"/><path d="M95.66,6.54c.52.23.97.53,1.36.92.38.39.69.84.92,1.36.23.52.34,1.08.34,1.67v1.29c0,.32-.15.52-.44.61l-3.09.82c-.29.09-.44-.02-.44-.34v-2.21c0-.23-.08-.42-.24-.58-.16-.16-.35-.24-.58-.24h-.27c-.23,0-.42.08-.58.24s-.24.35-.24.58v3.09c.02.25.07.46.14.65.07.18.19.36.37.54l4.45,3.33c.36.32.59.64.7.97.1.33.17.7.22,1.1v5.85c0,.59-.11,1.14-.34,1.67s-.53.97-.92,1.36c-.39.39-.84.69-1.36.92-.52.23-1.08.34-1.67.34h-1.29c-.59,0-1.14-.11-1.67-.34-.52-.23-.97-.53-1.36-.92-.39-.39-.69-.84-.92-1.36-.23-.52-.34-1.08-.34-1.67v-3.26c0-.32.15-.52.44-.61l3.09-.82c.29-.09.44.02.44.34v4.18c0,.23.08.42.24.58.16.16.35.24.58.24h.27c.23,0,.42-.08.58-.24s.24-.35.24-.58v-4.49c-.02-.29-.07-.56-.14-.78-.07-.23-.2-.43-.41-.61l-4.39-3.37c-.34-.32-.58-.63-.73-.95-.15-.32-.22-.74-.22-1.26v-4.08c0-.59.11-1.14.34-1.67.23-.52.53-.97.92-1.36.38-.39.84-.69,1.36-.92.52-.23,1.08-.34,1.67-.34h1.29c.59,0,1.14.11,1.67.34Z"/><path class="cls-5" d="M37.57,6.73H9.82s-.67,9.53.1,15.56l3.42,20.8v14.19h20.7v-14.19l3.42-20.8c.78-6.02.1-15.56.1-15.56Z"/><path class="cls-1" d="M37.57,6.73H9.82s-.67,9.53.1,15.56l3.42,20.8v14.19h20.7v-14.19l3.42-20.8c.78-6.02.1-15.56.1-15.56Z"/><path class="cls-2" d="M10.09,16.31c-.26,1.78-.37,3.55-.17,5.09l3.42,20.78v14.17h20.7v-14.17l3.42-20.78c.2-1.54.09-3.31-.17-5.09H10.09Z"/><path class="cls-4" d="M22.33,55.91h10.35v-14.17l3.42-20.78c.15-1.19.13-2.51-.02-3.88"/><path d="M53.36,45.77c.32.32.55.69.71,1.12.16.43.24.91.24,1.43v5.03c0,.59-.11,1.15-.34,1.67-.23.52-.53.98-.92,1.36-.39.39-.84.69-1.36.92-.52.23-1.08.34-1.67.34h-5.1c-.32,0-.48-.16-.48-.48v-22.85c0-.32.16-.48.48-.48h5.1c.59,0,1.14.11,1.67.34.52.23.97.53,1.36.92.39.39.69.84.92,1.36s.34,1.08.34,1.67v3.4c0,1.04-.32,1.92-.95,2.62-.34.36-.75.66-1.22.88.5.18.91.43,1.22.75ZM50.33,38.29c0-.23-.08-.42-.24-.58s-.35-.24-.58-.24h-1.09v5.78h1.09c.23,0,.42-.08.58-.24.16-.16.24-.35.24-.58v-4.15ZM50.33,47.77c0-.23-.08-.42-.24-.58-.16-.16-.35-.24-.58-.24h-1.09v7.04h1.09c.23,0,.42-.08.58-.24.16-.16.24-.35.24-.58v-5.41Z"/><path d="M66.38,57.16c.04.32-.09.48-.41.48h-3.09c-.29,0-.46-.16-.51-.48l-.27-3.67h-2.11l-.27,3.67c-.05.32-.22.48-.51.48h-3.09c-.32,0-.45-.16-.41-.48l2.55-22.85c.04-.32.23-.48.54-.48h4.49c.32,0,.5.16.54.48l2.55,22.85ZM61.83,49.68l-.65-9.21h-.27l-.65,9.21h1.56Z"/><path d="M79.51,34.31v22.85c0,.32-.16.48-.48.48h-2.18c-.14,0-.27-.04-.39-.14-.12-.09-.21-.19-.26-.31l-3.6-11.25v11.22c0,.32-.16.48-.48.48h-3.03c-.32,0-.48-.16-.48-.48v-22.85c0-.32.16-.48.48-.48h2.24c.14,0,.27.05.39.14.12.09.21.19.25.31l3.54,10.91v-10.88c0-.32.16-.48.48-.48h3.03c.32,0,.48.16.48.48Z"/><path d="M89.47,33.93c.52.23.97.53,1.36.92s.69.84.92,1.36c.23.52.34,1.08.34,1.67v1.09c0,.32-.15.52-.44.61l-3.09,1.12c-.29.09-.44-.02-.44-.34v-2.31c0-.23-.08-.42-.24-.58-.16-.16-.35-.24-.58-.24h-.27c-.23,0-.42.08-.58.24-.16.16-.24.35-.24.58v15.37c0,.23.08.42.24.58s.35.24.58.24h.27c.23,0,.42-.08.58-.24s.24-.35.24-.58v-6.05h-.95v-3.88h4.45c.32,0,.48.16.48.48v9.62c0,.59-.11,1.14-.34,1.67s-.53.97-.92,1.36c-.39.39-.84.69-1.36.92s-1.08.34-1.67.34h-1.29c-.59,0-1.14-.11-1.67-.34s-.97-.53-1.36-.92c-.39-.39-.69-.84-.92-1.36s-.34-1.08-.34-1.67v-15.71c0-.59.11-1.14.34-1.67.23-.52.53-.97.92-1.36.38-.39.84-.69,1.36-.92.52-.23,1.08-.34,1.67-.34h1.29c.59,0,1.14.11,1.67.34Z"/><path d="M106.23,33.99c.04.1.04.21,0,.32l-4.56,10.03,4.49,12.82c.04.11.03.22-.03.32-.07.1-.17.15-.31.15h-3.37c-.14,0-.26-.04-.37-.12-.11-.08-.19-.17-.24-.29l-2.48-7.68-.58,1.43v6.19c0,.32-.16.48-.48.48h-3.03c-.32,0-.48-.16-.48-.48v-22.85c0-.32.16-.48.48-.48h3.03c.32,0,.48.16.48.48v7.31l3.13-7.38c.11-.27.33-.41.65-.41h3.4c.14,0,.23.05.27.15Z"/><path d="M117.35,53.59c0,.59-.11,1.14-.34,1.67s-.53.97-.92,1.36-.84.69-1.36.92c-.52.23-1.08.34-1.67.34h-1.29c-.59,0-1.15-.11-1.67-.34-.52-.23-.98-.53-1.36-.92-.39-.39-.69-.84-.92-1.36s-.34-1.08-.34-1.67v-15.71c0-.59.11-1.14.34-1.67.23-.52.53-.97.92-1.36.38-.39.84-.69,1.36-.92.52-.23,1.08-.34,1.67-.34h1.29c.59,0,1.14.11,1.67.34.52.23.97.53,1.36.92.39.38.69.84.92,1.36.23.52.34,1.08.34,1.67v15.71ZM113.37,38.05c0-.23-.08-.42-.24-.58-.16-.16-.35-.24-.58-.24h-.27c-.23,0-.42.08-.58.24s-.24.35-.24.58v15.37c0,.23.08.42.24.58.16.16.35.24.58.24h.27c.23,0,.42-.08.58-.24.16-.16.24-.35.24-.58v-15.37Z"/><path d="M131.49,33.99c.04.1.04.21,0,.32l-4.55,10.03,4.49,12.82c.05.11.04.22-.03.32-.07.1-.17.15-.31.15h-3.37c-.14,0-.26-.04-.38-.12-.11-.08-.19-.17-.24-.29l-2.48-7.68-.58,1.43v6.19c0,.32-.16.48-.48.48h-3.03c-.32,0-.48-.16-.48-.48v-22.85c0-.32.16-.48.48-.48h3.03c.32,0,.48.16.48.48v7.31l3.13-7.38c.11-.27.33-.41.65-.41h3.4c.14,0,.23.05.27.15Z"/><g class="cls-6"><line class="cls-3" x1="32.58" y1="19.49" x2="23.74" y2="26.22"/><line class="cls-3" x1="32.03" y1="23.55" x2="23.18" y2="30.28"/><line class="cls-3" x1="31.48" y1="27.61" x2="22.63" y2="34.34"/></g><circle cx="115.42" cy="18.4" r="11"/><path class="cls-5" d="M115.44,17.64c0,.34-.03.69-.1,1.05-.06.36-.16.7-.29,1.03-.13.33-.3.64-.5.93-.2.29-.44.54-.72.76s-.59.39-.93.52c-.35.13-.74.19-1.17.19s-.82-.05-1.14-.16-.58-.26-.78-.46c-.2-.2-.35-.45-.45-.75s-.14-.63-.14-1c0-.34.03-.69.09-1.05.06-.36.16-.7.29-1.02.13-.33.3-.64.5-.93.2-.29.44-.55.71-.76.27-.22.59-.39.93-.52.35-.13.74-.19,1.17-.19s.82.05,1.14.16c.32.11.58.26.78.47s.36.45.45.75.14.63.14,1ZM114.23,17.71c0-.23-.02-.44-.07-.62-.05-.18-.13-.34-.24-.47-.11-.13-.26-.23-.44-.29-.18-.07-.4-.1-.66-.1-.28,0-.53.05-.76.15-.23.1-.43.23-.61.4-.18.17-.33.37-.46.59-.13.23-.24.47-.32.72-.09.26-.15.52-.19.79-.04.27-.06.53-.06.79,0,.23.03.44.08.62.05.18.13.34.25.47.11.13.26.23.44.3s.4.1.66.1c.28,0,.53-.05.76-.15.22-.1.42-.23.6-.4s.33-.37.46-.6c.13-.23.24-.47.32-.73s.15-.52.19-.79.06-.53.06-.79Z"/><path class="cls-5" d="M121.61,12.73s0,.05,0,.09c0,.04-.01.08-.02.13,0,.05-.02.1-.03.15-.01.05-.03.1-.05.15-.02.05-.04.08-.06.11-.02.03-.05.04-.08.04-.03,0-.07,0-.12-.03-.05-.02-.1-.04-.17-.06-.06-.02-.14-.04-.23-.06-.09-.02-.19-.03-.29-.03-.2,0-.37.03-.51.09s-.26.15-.36.28c-.1.13-.19.29-.26.48s-.13.42-.18.69l-.12.62h1.39c.05,0,.09.02.12.05.03.04.04.09.04.17,0,.05,0,.1-.01.16,0,.06-.02.11-.03.16-.01.05-.03.1-.05.15-.02.05-.04.09-.07.13s-.05.07-.09.09c-.03.02-.06.03-.1.03h-1.4l-1.18,5.9c-.08.39-.18.72-.32,1.01-.13.28-.3.52-.49.71-.19.19-.42.32-.67.42-.25.09-.54.13-.86.13-.21,0-.38-.02-.51-.05-.13-.03-.21-.06-.25-.09-.02-.02-.03-.05-.04-.08,0-.03-.01-.06-.01-.11,0-.02,0-.05,0-.09,0-.04.02-.09.02-.14,0-.05.02-.1.04-.15s.03-.1.05-.15c.02-.05.04-.08.06-.11.02-.03.05-.04.08-.04s.06,0,.09.01c.03,0,.06.01.1.02.04,0,.08.01.12.02.05,0,.11.01.18.01.19,0,.36-.03.5-.09.14-.06.26-.15.36-.28s.18-.29.25-.48.13-.43.18-.7l1.14-5.66h-.89s-.08-.01-.11-.04c-.02-.03-.04-.09-.04-.17,0-.04,0-.08,0-.13,0-.05.01-.11.02-.16s.03-.11.04-.16c.02-.05.04-.1.07-.14s.06-.08.09-.1c.03-.03.07-.04.12-.04h.87l.17-.87c.07-.38.18-.71.32-.99.14-.28.31-.52.5-.7.2-.18.42-.32.68-.41.26-.09.54-.14.85-.14.1,0,.21,0,.32.02.11.01.21.03.31.05.09.02.18.04.25.07s.12.06.15.08c.03.02.05.06.06.1s.02.09.02.13Z"/></svg>