<?xml version="1.0" encoding="UTF-8"?><svg id="Layer_2" xmlns="http://www.w3.org/2000/svg" viewBox="0 0 134.82 64"><defs><style>.cls-1{fill:none;}.cls-1,.cls-2{stroke:#000;stroke-linecap:round;stroke-linejoin:round;stroke-width:2px;}.cls-3{fill:#fff;}</style></defs><path class="cls-3" d="M35.87,6.73H8.12s-.67,9.53.1,15.56l3.42,20.8v14.19h20.7v-14.19l3.42-20.8c.78-6.02.1-15.56.1-15.56Z"/><path class="cls-1" d="M35.87,6.73H8.12s-.67,9.53.1,15.56l3.42,20.8v14.19h20.7v-14.19l3.42-20.8c.78-6.02.1-15.56.1-15.56Z"/><path class="cls-2" d="M8.39,16.31c-.26,1.78-.37,3.55-.17,5.09l3.42,20.78v14.17h20.7v-14.17l3.42-20.78c.2-1.54.09-3.31-.17-5.09H8.39Z"/><path d="M52.06,19.48c-.8.72-1.83,1.07-3.08,1.07h-2.11v8.68h-3.5V7.26h5.61c1.25,0,2.28.36,3.08,1.07.8.71,1.21,1.84,1.21,3.38v4.42c0,1.52-.4,2.63-1.21,3.35ZM49.87,11.71c0-.97-.4-1.45-1.19-1.45h-1.82v7.49h1.82c.79,0,1.19-.48,1.19-1.45v-4.59Z"/><path d="M55.15,29.24V7.26h3.5v21.98h-3.5Z"/><path d="M69.17,29.24l-3.7-9.97-1.22-3.37v13.33h-3.17V7.26h3.1l3.43,10.06,1.12,3.4V7.26h3.13v21.98h-2.71Z"/><path d="M80.26,10.46v18.78h-3.5V10.46h-3.4v-3.2h10.23v3.2h-3.33Z"/><path d="M94.12,26.55c-.26.67-.63,1.24-1.09,1.7-.46.46-1.01.81-1.63,1.04s-1.3.35-2.03.35c-1.58,0-2.84-.45-3.76-1.35-.92-.9-1.39-2.13-1.39-3.7v-1.95h3.2v1.88c0,.7.15,1.24.46,1.62.31.37.77.56,1.39.56s1.11-.18,1.4-.53.45-.84.45-1.45c0-.97-.24-1.84-.71-2.62-.47-.78-1.17-1.67-2.1-2.66-.46-.46-.92-.96-1.39-1.5-.46-.54-.88-1.11-1.25-1.72-.38-.6-.68-1.24-.92-1.91-.24-.67-.36-1.36-.36-2.06,0-.75.1-1.45.31-2.1.21-.65.53-1.22.96-1.7.43-.48.96-.87,1.6-1.15.64-.29,1.39-.43,2.24-.43,1.47,0,2.65.46,3.53,1.39.88.92,1.32,2.15,1.32,3.66v1.98h-3.17v-1.98c0-.62-.14-1.11-.41-1.48-.28-.37-.7-.56-1.27-.56-.51,0-.92.15-1.24.46-.32.31-.48.75-.48,1.32,0,.53.06,1.01.18,1.44.12.43.3.84.54,1.24.24.4.55.81.94,1.24.38.43.83.92,1.34,1.47,1.08,1.12,1.97,2.26,2.67,3.4.7,1.14,1.06,2.41,1.06,3.79,0,.88-.13,1.66-.4,2.33Z"/><path d="M105.92,27.6c-.15.39-.37.72-.64,1-.27.28-.61.5-1,.65-.39.15-.83.23-1.31.23s-.92-.08-1.31-.23c-.39-.15-.73-.37-1-.65-.27-.28-.49-.61-.64-1-.15-.39-.23-.81-.23-1.28v-7.48c0-.45.08-.87.23-1.26.15-.39.37-.72.64-1,.27-.28.61-.5,1-.66.39-.16.83-.24,1.31-.24s.92.08,1.31.24c.39.16.73.38,1,.66.27.28.49.61.64,1,.15.39.23.81.23,1.26v7.48c0,.47-.08.89-.23,1.28ZM104.03,18.68c0-.32-.09-.58-.28-.78-.18-.2-.45-.3-.79-.3s-.6.1-.79.3c-.18.2-.27.46-.27.78v7.8c0,.32.09.58.27.78.18.2.45.3.79.3s.6-.1.79-.3.28-.46.28-.78v-7.8Z"/><path d="M109.63,17.76v3.84h2.3v1.82h-2.3v5.82h-2.12v-13.32h5.18v1.84h-3.06Z"/><path d="M52.13,56.23c-.8.67-1.81,1.01-3.02,1.01h-5.74v-21.98h5.68c1.23,0,2.24.34,3.04,1.01s1.19,1.75,1.19,3.25v3.2c0,.84-.17,1.53-.51,2.09-.34.56-.9.96-1.67,1.21.81.26,1.39.68,1.73,1.24.34.56.51,1.25.51,2.06v3.66c0,1.5-.4,2.58-1.2,3.25ZM49.87,39.68c0-.95-.41-1.42-1.22-1.42h-1.78v6.53h1.65c.9,0,1.35-.51,1.35-1.52v-3.6ZM49.9,49.02c0-1.03-.45-1.55-1.35-1.55h-1.68v6.76h1.85c.79,0,1.19-.47,1.19-1.42v-3.79Z"/><path d="M62.01,57.24l-.56-4.29h-3.2l-.66,4.29h-3.2l3.66-21.98h3.86l3.66,21.98h-3.56ZM59.97,41.03l-1.29,8.98h2.38l-1.09-8.98Z"/><path d="M74.98,57.24l-3.7-9.97-1.22-3.37v13.33h-3.17v-21.98h3.1l3.43,10.07,1.12,3.4v-13.46h3.13v21.98h-2.71Z"/><path d="M88.49,57.21l-.53-1.48c-.31.64-.76,1.12-1.35,1.43-.59.31-1.26.47-2.01.47s-1.38-.12-1.96-.36c-.58-.24-1.07-.59-1.48-1.04-.41-.45-.72-.98-.94-1.6-.22-.62-.33-1.3-.33-2.05v-12.67c0-.68.12-1.33.36-1.95.24-.62.59-1.15,1.06-1.62.46-.46,1.02-.82,1.67-1.09.65-.26,1.38-.4,2.19-.4s1.54.13,2.16.4c.63.26,1.16.62,1.58,1.07s.75.98.97,1.6c.22.62.33,1.28.33,1.98v2.94h-3.33v-3.14c0-.46-.14-.86-.43-1.19s-.73-.5-1.32-.5-1.01.17-1.3.51c-.3.34-.45.74-.45,1.2v13.04c0,.48.15.89.46,1.23.31.34.75.51,1.32.51s1.04-.17,1.34-.51c.3-.34.45-.75.45-1.23v-3.9h-1.72v-2.64h5.15v10.97h-1.9Z"/><path d="M99.63,57.24l-2.44-9.14-1.19,3.17v5.97h-3.5v-21.98h3.5v10.33l3.63-10.33h3.47l-3.53,9.34,3.66,12.64h-3.6Z"/><path d="M114.27,54.53c-.25.64-.61,1.19-1.06,1.65s-1,.82-1.65,1.07c-.65.25-1.37.38-2.16.38s-1.51-.13-2.16-.38c-.65-.25-1.2-.61-1.65-1.07-.45-.46-.8-1.01-1.06-1.65-.25-.64-.38-1.34-.38-2.11v-12.34c0-.75.13-1.44.38-2.08.25-.64.61-1.19,1.06-1.65.45-.46,1-.82,1.65-1.09.65-.26,1.37-.4,2.16-.4s1.51.13,2.16.4c.65.26,1.2.63,1.65,1.09.45.46.8,1.01,1.06,1.65.25.64.38,1.33.38,2.08v12.34c0,.77-.13,1.47-.38,2.11ZM111.15,39.81c0-.53-.15-.96-.45-1.29s-.73-.5-1.29-.5-.99.17-1.29.5-.45.76-.45,1.29v12.87c0,.53.15.96.45,1.29s.73.49,1.29.49.99-.16,1.29-.49.45-.76.45-1.29v-12.87Z"/><path d="M124.02,57.24l-2.44-9.14-1.19,3.17v5.97h-3.5v-21.98h3.5v10.33l3.63-10.33h3.47l-3.53,9.34,3.66,12.64h-3.6Z"/></svg>