<?xml version="1.0" encoding="UTF-8"?><svg id="Layer_2" xmlns="http://www.w3.org/2000/svg" viewBox="0 0 30.98 54.41"><defs><style>.cls-1,.cls-2{stroke:#000;stroke-width:2px;}.cls-1,.cls-2,.cls-3{stroke-linecap:round;stroke-linejoin:round;}.cls-1,.cls-3{fill:none;}.cls-3{stroke:#fff;stroke-width:1.2px;}.cls-4{fill:#fff;}</style></defs><g id="Layer_2-2"><path class="cls-4" d="M29.36,1.93H1.62s-.67,9.53.1,15.56l3.42,20.8v14.19h20.7v-14.19l3.42-20.8c.78-6.02.1-15.56.1-15.56Z"/><path class="cls-1" d="M29.36,1.93H1.62s-.67,9.53.1,15.56l3.42,20.8v14.19h20.7v-14.19l3.42-20.8c.78-6.02.1-15.56.1-15.56Z"/><path class="cls-2" d="M1.89,11.51c-.26,1.78-.37,3.55-.17,5.09l3.42,20.78v14.17h20.7v-14.17l3.42-20.78c.2-1.54.09-3.31-.17-5.09H1.89Z"/><path class="cls-3" d="M30.09.6H.88s-.71,10.04.11,16.38l3.6,21.9v14.94h21.79v-14.94l3.6-21.9c.82-6.34.11-16.38.11-16.38Z"/></g></svg>