<?xml version="1.0" encoding="UTF-8"?><svg id="Layer_2" xmlns="http://www.w3.org/2000/svg" viewBox="0 0 134.82 64"><defs><style>.cls-1{font-family:Knockout-HTF48-Featherweight, Knockout;}.cls-2{fill:none;}.cls-2,.cls-3{stroke:#000;stroke-linecap:round;stroke-linejoin:round;stroke-width:2px;}.cls-4{font-size:20px;}.cls-5{font-size:30px;}.cls-6,.cls-7{font-size:33px;}.cls-8{fill:#fff;}.cls-7{letter-spacing:0em;}.cls-9{letter-spacing:-.01em;}</style></defs><path class="cls-8" d="M35.87,6.73H8.12s-.67,9.53.1,15.56l3.42,20.8v14.19h20.7v-14.19l3.42-20.8c.78-6.02.1-15.56.1-15.56Z"/><path class="cls-2" d="M35.87,6.73H8.12s-.67,9.53.1,15.56l3.42,20.8v14.19h20.7v-14.19l3.42-20.8c.78-6.02.1-15.56.1-15.56Z"/><path class="cls-3" d="M8.39,16.31c-.26,1.78-.37,3.55-.17,5.09l3.42,20.78v14.17h20.7v-14.17l3.42-20.78c.2-1.54.09-3.31-.17-5.09H8.39Z"/><text class="cls-1" transform="translate(42.15 29.24)"><tspan class="cls-6" x="0" y="0">PIN</tspan><tspan class="cls-7" x="30.95" y="0">T</tspan><tspan class="cls-6" x="41.42" y="0">S</tspan><tspan class="cls-5" x="53.06" y="0"> </tspan><tspan class="cls-4" x="57.02" y="0">OF</tspan><tspan class="cls-6"><tspan x="0" y="28">BANG</tspan><tspan class="cls-9" x="49.14" y="28">K</tspan><tspan x="60.98" y="28">OK</tspan></tspan></text></svg>